<svg version="1.1" id="Layer_1" xmlns="http://www.w3.org/2000/svg" xmlns:xlink="http://www.w3.org/1999/xlink" x="0px" y="0px"
	 width="100%" viewBox="0 0 800 800" enable-background="new 0 0 800 800" xml:space="preserve">
<path fill="#FFFFFF" opacity="1.000000" stroke="none" 
	d="
M507.000000,801.000000 
	C338.000000,801.000000 169.500000,801.000000 1.000000,801.000000 
	C1.000000,534.333313 1.000000,267.666656 1.000000,1.000000 
	C267.666656,1.000000 534.333313,1.000000 801.000000,1.000000 
	C801.000000,267.666656 801.000000,534.333313 801.000000,801.000000 
	C703.166687,801.000000 605.333313,801.000000 507.000000,801.000000 
M435.079376,274.113953 
	C435.069275,265.629425 435.319153,257.134216 434.971649,248.663498 
	C434.660431,241.076096 432.005280,234.242126 426.510590,228.205383 
	C425.038605,229.533890 423.862152,230.595673 423.466797,230.952499 
	C425.526123,237.432281 428.182800,243.081985 428.968536,248.980896 
	C429.859833,255.672272 429.075867,262.586792 428.361298,269.083221 
	C423.942444,267.328796 419.523560,265.574341 415.047333,262.911041 
	C414.823822,257.103516 414.600311,251.295990 414.341339,244.567642 
	C411.524231,245.982101 409.973114,246.760910 408.958954,247.270126 
	C408.958954,253.049820 408.958954,258.293793 408.180878,263.826508 
	C403.772522,265.415283 399.364136,267.004028 394.873810,267.699402 
	C395.277924,262.609680 392.500763,262.631561 388.380859,263.850403 
	C388.660309,267.036041 388.925507,270.058868 388.949524,273.733124 
	C383.091888,281.058075 380.785522,289.391815 380.863129,298.768402 
	C381.078064,324.745483 380.937592,350.725464 380.937592,376.704315 
	C380.937592,378.501953 380.937622,380.299591 380.937622,382.475525 
	C378.325592,382.345978 376.191376,382.240143 374.112457,381.177551 
	C374.117523,338.686157 374.126648,296.194763 374.124512,253.703384 
	C374.124023,244.312698 376.876526,236.019333 383.874176,229.481750 
	C385.785583,227.696014 387.968628,226.201035 390.163666,224.464508 
	C389.223145,222.821808 388.422058,221.422623 387.473846,219.766495 
	C385.650848,220.915115 384.028046,221.755844 382.610382,222.859955 
	C372.565735,230.683060 368.266479,241.257111 368.223328,253.717468 
	C368.152893,274.046448 368.179047,294.375854 368.210938,314.705048 
	C368.246246,337.196686 368.333740,359.688232 367.430206,382.409485 
	C365.326813,382.409485 363.223419,382.409485 360.676849,382.409485 
	C360.676849,380.109009 360.676849,378.314850 360.676849,376.520691 
	C360.676849,340.940247 360.574493,305.359344 360.744080,269.779694 
	C360.790222,260.092865 359.421600,250.971115 354.014893,241.906937 
	C353.950226,233.412598 354.151489,224.905533 353.745453,216.427551 
	C353.346283,208.092499 350.075958,200.844254 343.714142,194.373947 
	C342.371765,195.953674 341.314514,197.197845 340.257263,198.442032 
	C340.675171,198.315094 341.093048,198.188171 341.510956,198.061234 
	C343.670197,204.376602 346.685852,210.551971 347.747620,217.046738 
	C348.807465,223.529861 347.910309,230.332916 347.201324,236.848007 
	C342.701294,234.912003 338.201233,232.975998 333.769257,230.113556 
	C333.361786,223.720627 335.386597,216.880188 329.936646,210.429260 
	C328.738281,212.513657 327.082611,214.076248 327.078125,215.643539 
	C327.063568,220.752304 327.651917,225.862778 327.309021,231.325638 
	C323.117310,232.759735 318.925568,234.193832 314.170532,235.139343 
	C312.194672,234.073318 310.218781,233.007294 307.242645,231.401611 
	C307.242645,236.095428 307.242645,239.036255 306.887451,242.581253 
	C301.406189,249.384216 299.571991,257.269165 299.589111,265.855499 
	C299.662537,302.638336 299.620392,339.421417 299.620392,376.204407 
	C299.620392,378.129913 299.620392,380.055420 299.620392,382.149109 
	C292.518921,382.149109 286.118805,382.149109 279.192078,382.149109 
	C279.192078,373.248352 278.894592,364.625122 279.270050,356.031311 
	C279.704987,346.076050 277.922791,336.869995 272.561829,327.669189 
	C272.635010,320.346375 273.053375,313.007019 272.702942,305.704529 
	C272.133789,293.845001 267.627502,283.673706 257.760986,276.585419 
	C239.344284,263.354553 212.725952,272.902039 207.502136,295.214996 
	C205.456802,303.951447 206.271957,313.369354 205.906113,322.481781 
	C205.742325,326.561371 205.878418,330.652985 205.878418,335.269958 
	C195.527527,335.269958 185.964081,335.269958 176.257431,335.269958 
	C176.257431,337.398560 176.257431,338.977692 176.257431,340.739319 
	C188.092178,340.739319 199.658005,340.739319 211.786392,340.739319 
	C211.786392,338.676941 211.786240,336.890778 211.786423,335.104614 
	C211.787460,324.779663 211.623413,314.451416 211.828369,304.130493 
	C212.137009,288.587585 224.542892,276.011871 239.845551,276.241211 
	C253.639740,276.447937 264.244720,287.364319 265.940430,300.029938 
	C266.970886,307.726837 266.622620,315.608337 266.197876,323.190002 
	C261.481476,321.304504 256.765045,319.418976 252.138733,316.669220 
	C252.124313,313.016785 252.199295,309.361359 252.077179,305.712524 
	C251.808533,297.685944 246.461502,292.003601 239.287491,291.993225 
	C231.940643,291.982605 226.198181,297.850098 226.029922,305.909485 
	C225.877548,313.208160 226.058609,320.513855 225.892044,328.495819 
	C224.856613,329.988617 223.768906,331.448181 222.794601,332.979858 
	C218.094009,340.369629 218.159988,348.730988 217.020309,356.995544 
	C201.541534,356.993042 186.060593,357.135590 170.585266,356.903320 
	C165.670975,356.829590 165.450211,358.936890 166.598129,362.967499 
	C183.843033,362.967499 200.895935,362.967499 218.119659,363.895203 
	C218.119659,370.005554 218.119659,376.115906 218.119659,382.449951 
	C215.700378,382.449951 213.880905,382.449921 212.061417,382.449951 
	C201.068481,382.450226 190.074982,382.383392 179.082825,382.476440 
	C172.685669,382.530579 168.916489,385.439453 167.753296,390.845337 
	C166.061783,398.706360 171.005203,403.994598 180.157959,403.997284 
	C252.408508,404.018341 324.659058,404.027588 396.909607,404.027771 
	C465.165405,404.027985 533.421265,404.035217 601.676880,403.925385 
	C604.528992,403.920776 607.754089,403.400574 610.147888,401.998199 
	C614.399170,399.507660 615.673889,394.359894 614.131653,389.724762 
	C612.426941,384.601105 608.707458,382.446625 603.512390,382.417847 
	C588.033081,382.332031 572.553772,382.246979 557.117432,381.200317 
	C557.117432,375.265198 557.117432,369.330078 557.117432,362.885193 
	C566.620422,362.885193 575.487610,362.885193 584.504150,362.885193 
	C584.504150,360.672760 584.504150,358.990753 584.504150,357.226715 
	C573.317627,357.226715 562.566895,357.226715 551.199524,357.226715 
	C551.199524,365.735809 551.199524,374.004608 550.255127,382.424194 
	C545.843323,382.342560 541.431519,382.260925 537.012939,381.217010 
	C537.012573,371.051300 536.998352,360.885529 537.016602,350.719849 
	C537.029419,343.549072 539.458313,341.039398 546.548096,341.023865 
	C562.379883,340.989166 578.213501,340.892609 594.042358,341.113556 
	C597.671631,341.164215 599.221191,339.945618 599.574219,335.820190 
	C596.541809,335.568939 593.638550,335.135010 590.733154,335.120331 
	C576.136841,335.046570 561.540039,335.070038 546.943359,335.083740 
	C536.607910,335.093414 531.053162,340.676910 530.999390,351.181061 
	C530.946533,361.513153 530.983887,371.845734 530.098022,382.408325 
	C527.970520,382.408325 525.843079,382.408325 523.192078,382.408325 
	C523.192078,380.127747 523.192078,378.336395 523.192078,376.545013 
	C523.192078,340.226929 523.073059,303.908142 523.276733,267.591217 
	C523.326904,258.647949 521.650879,250.454224 516.745361,242.104309 
	C516.500732,232.340668 516.682007,222.541565 515.872620,212.824966 
	C515.258240,205.449097 511.638428,199.155426 505.830811,193.936981 
	C504.552643,195.329727 503.572113,196.398148 502.395844,197.679871 
	C508.375977,205.218796 511.291168,213.616959 510.902863,223.125900 
	C510.713470,227.764893 510.848236,232.417145 510.183899,236.857178 
	C505.473785,234.877686 500.763702,232.898178 496.114563,229.996857 
	C495.717743,224.425125 495.452820,218.837646 494.791260,213.297516 
	C494.683868,212.398132 492.818878,211.708649 491.766296,210.922165 
	C490.912720,212.339706 489.353363,213.746231 489.331055,215.176697 
	C489.247009,220.571701 489.662811,225.974503 489.090149,231.605392 
	C484.770966,233.119034 480.451752,234.632675 475.973785,235.307510 
	C474.210785,234.732040 472.447815,234.156570 470.087891,233.386246 
	C470.087891,236.884598 470.087891,239.325287 469.803101,242.415665 
	C464.036530,249.255234 462.122162,257.318481 462.129456,266.057648 
	C462.160370,303.017426 462.142517,339.977173 462.142487,376.936951 
	C462.142487,378.708801 462.142517,380.480621 462.142517,382.127136 
	C455.086029,382.127136 448.687195,382.127136 442.004303,382.127136 
	C442.004303,380.169525 442.004272,378.522675 442.004272,376.875854 
	C442.004272,351.237091 441.881104,325.597443 442.070374,299.960083 
	C442.137634,290.846130 440.215576,282.518585 435.079376,274.113953 
M453.137573,203.796555 
	C452.049133,209.289047 450.041107,214.777267 450.015472,220.274719 
	C449.774475,271.933411 449.869751,323.593719 449.882751,375.253540 
	C449.883179,377.021423 450.039642,378.789246 450.141357,380.937073 
	C452.247894,380.817780 453.814209,380.729034 455.796356,380.616760 
	C455.796356,378.260803 455.796356,376.294556 455.796356,374.328308 
	C455.796387,323.001770 455.846680,271.675140 455.751434,220.348785 
	C455.733673,210.790329 458.613159,202.581467 466.114410,196.598236 
	C469.628113,193.795609 469.392578,191.798233 466.211395,189.012497 
	C460.339508,192.192963 456.474396,197.246216 453.137573,203.796555 
M286.997375,270.500000 
	C286.997375,306.903961 286.997375,343.307922 286.997375,379.762634 
	C289.271637,379.762634 290.875458,379.762634 293.002625,379.762634 
	C293.002625,377.594391 293.002625,375.635590 293.002625,373.676819 
	C293.002625,323.889648 293.180481,274.101440 292.880859,224.316086 
	C292.803375,211.445236 296.066528,200.750412 307.463226,193.143082 
	C306.489258,191.477814 305.638885,190.023834 304.606384,188.258469 
	C292.785217,196.113770 287.182434,206.669434 287.039703,220.046310 
	C286.863861,236.529144 286.997498,253.015289 286.997375,270.500000 
M107.881691,459.793884 
	C109.320381,469.092987 110.759064,478.392120 112.216576,487.812866 
	C114.576775,487.812866 116.518417,487.812866 118.782722,487.812866 
	C119.869522,482.936035 120.933281,478.162537 122.307526,471.995819 
	C123.371674,476.514038 124.536552,479.523315 124.701355,482.586426 
	C124.991890,487.986572 127.631516,488.978607 132.547760,487.427490 
	C134.532440,474.531769 136.535309,461.517975 138.577377,448.249512 
	C136.082199,448.249512 134.166367,448.249512 131.986954,448.249512 
	C130.852417,455.814819 129.748703,463.174591 128.644989,470.534363 
	C128.309402,470.537506 127.973831,470.540619 127.638252,470.543732 
	C126.863686,466.763580 126.089111,462.983459 125.312965,459.195648 
	C123.163101,459.195648 121.376602,459.195648 119.328415,459.195648 
	C118.425491,463.641205 117.550148,467.950989 116.674805,472.260773 
	C116.499458,472.233704 116.324112,472.206635 116.148766,472.179565 
	C114.970070,464.194611 113.791367,456.209686 112.625717,448.313171 
	C110.219200,448.313171 108.301109,448.313171 106.114944,448.313171 
	C106.671913,452.088043 107.177559,455.515015 107.881691,459.793884 
M72.792107,488.007782 
	C75.956779,488.007538 79.122643,488.063446 82.285896,487.996338 
	C91.021049,487.811096 96.311707,482.607605 97.744804,472.863770 
	C99.456421,461.226257 95.162727,451.290558 87.347542,448.803558 
	C87.188858,448.753082 87.033577,448.658783 86.873421,448.650787 
	C81.172676,448.366272 75.471550,448.089630 69.399757,447.793854 
	C69.399757,460.916992 69.344818,473.055328 69.506416,485.190765 
	C69.519035,486.138184 71.045601,487.065430 72.792107,488.007782 
M320.903290,493.711639 
	C316.764648,493.004150 312.626038,492.296692 307.989990,491.504181 
	C307.537140,492.303772 306.742035,493.707642 305.563293,495.788879 
	C308.663269,497.189606 311.364716,498.918701 314.313141,499.644958 
	C322.437317,501.645996 331.407104,497.307739 331.783691,490.704285 
	C332.377625,480.290375 331.941711,469.817719 331.941711,458.421204 
	C329.189270,459.225342 327.070587,459.844299 323.976898,460.748138 
	C318.320801,457.866272 312.645294,458.509308 308.465332,463.276093 
	C303.955017,468.419678 303.818146,477.368927 308.159912,483.246460 
	C311.859924,488.255310 317.543335,488.983368 325.548676,485.474060 
	C325.868866,490.615997 325.541107,491.286804 320.903290,493.711639 
M504.258759,464.962891 
	C500.750031,472.866058 501.297485,479.852417 506.224396,484.408966 
	C511.248291,489.055267 516.847595,489.201324 522.568604,485.174652 
	C522.973450,494.664246 518.551636,496.074921 505.376007,490.779663 
	C504.561157,492.246735 503.722443,493.756775 502.853973,495.320404 
	C509.383057,500.636841 516.185913,501.484070 523.252380,498.126038 
	C529.509216,495.152649 529.301758,489.189056 529.109436,483.415222 
	C529.054016,481.750549 529.100891,480.082520 529.100891,478.416016 
	C529.100891,472.001953 529.100891,465.587891 529.100891,458.236053 
	C526.097778,459.193787 524.100891,459.830597 521.135925,460.776184 
	C514.518372,457.567596 510.332886,458.259583 504.258759,464.962891 
M252.142258,460.263458 
	C248.523392,457.776703 245.601990,459.165771 244.231689,460.684662 
	C237.549072,460.006226 232.033920,459.446320 226.287903,458.862976 
	C226.287903,468.894897 226.287903,478.286682 226.287903,487.643372 
	C228.479111,487.643372 230.361374,487.643372 232.645706,487.643372 
	C232.645706,481.479553 232.464508,475.669525 232.763641,469.884338 
	C232.846085,468.289825 234.361313,466.769440 235.219116,465.215027 
	C235.830490,466.764679 236.914032,468.297668 236.969299,469.866913 
	C237.178177,475.798096 237.053253,481.741058 237.053253,487.817657 
	C239.463379,487.817657 241.246719,487.817657 243.770981,487.817657 
	C243.770981,481.689575 243.589142,475.731354 243.892807,469.798004 
	C243.973434,468.222656 245.545471,466.723602 246.432724,465.189545 
	C247.007782,466.759796 248.025955,468.315308 248.078888,469.902954 
	C248.276550,475.831696 248.157883,481.770996 248.157883,487.624695 
	C250.729065,487.624695 252.620178,487.624695 254.841705,487.624695 
	C254.841705,481.441193 255.074585,475.626862 254.746628,469.844360 
	C254.574371,466.807098 253.420303,463.825500 252.142258,460.263458 
M720.896484,459.718170 
	C719.946533,459.902618 718.787720,460.532135 718.080078,460.200165 
	C713.087402,457.857574 708.604065,458.901733 704.612000,462.216003 
	C697.907532,467.782227 698.446655,481.652649 705.665161,486.485870 
	C707.741943,487.876404 710.815552,489.259857 712.973511,488.740540 
	C717.530762,487.643921 721.974487,487.148651 726.822876,488.151886 
	C726.822876,474.547974 726.822876,461.509888 726.822876,448.373260 
	C722.833618,448.373260 719.131592,448.373260 715.148132,448.373260 
	C715.245789,450.368958 715.324097,451.969238 715.409668,453.718506 
	C717.309692,453.922607 718.900940,454.093536 720.898743,454.308136 
	C720.898743,456.013672 720.898743,457.472351 720.896484,459.718170 
M269.475189,466.383698 
	C271.939392,466.048157 274.435333,465.862122 276.861328,465.346771 
	C282.356201,464.179596 285.392303,465.453003 286.375183,469.150848 
	C281.572662,470.101318 276.623230,470.661194 271.957794,472.125763 
	C267.557343,473.507172 265.250671,477.021301 266.070557,481.830719 
	C266.911469,486.763489 270.641602,488.955780 275.050690,488.798126 
	C278.989349,488.657288 282.877167,487.095856 285.074951,486.570557 
	C288.417664,487.296661 290.465912,487.741608 293.058624,488.304810 
	C293.058624,481.520416 293.103668,475.723267 293.046539,469.927124 
	C292.983154,463.495056 289.957855,459.579254 283.652222,459.322083 
	C279.311707,459.145050 274.872070,460.339722 270.546844,461.253296 
	C268.074249,461.775543 267.529175,463.555237 269.475189,466.383698 
M567.811096,485.229919 
	C571.781799,478.852386 569.912109,473.861420 562.778931,472.114838 
	C559.722412,471.366486 556.552795,471.074768 553.504944,470.299011 
	C551.932617,469.898773 550.514526,468.892700 547.819824,467.566284 
	C550.645142,466.396484 552.139099,465.233795 553.595459,465.279053 
	C557.650940,465.405151 561.690735,466.032562 566.328918,466.524872 
	C566.751953,465.680237 567.455994,464.274323 568.131287,462.925812 
	C562.340027,458.795898 554.336243,457.744812 548.467651,460.377258 
	C545.127136,461.875702 542.690125,464.103546 542.863403,468.333435 
	C543.031799,472.445160 545.657410,474.239685 548.970276,475.223083 
	C552.134399,476.162323 555.523132,476.356567 558.670349,477.336639 
	C560.332275,477.854156 561.689819,479.348907 563.184814,480.402466 
	C561.526123,481.243164 559.806519,482.891998 558.220276,482.772308 
	C553.541077,482.419373 548.914673,481.366302 543.877686,480.521820 
	C543.372498,481.545013 542.663757,482.980316 541.982422,484.360291 
	C549.072754,490.006653 559.574707,490.521179 567.811096,485.229919 
M674.740173,465.037018 
	C678.014526,465.037018 681.288940,465.037018 684.555298,465.037018 
	C684.555298,462.682465 684.555298,460.978638 684.555298,458.874451 
	C680.593689,458.874451 676.999695,458.874451 672.856995,458.874451 
	C672.856995,455.082581 672.856995,451.693054 672.856995,448.205902 
	C670.511169,448.205902 668.735229,448.205902 666.340210,448.205902 
	C666.340210,451.794373 666.340210,455.181061 666.340210,458.760529 
	C663.978271,458.930542 662.215393,459.057434 660.294678,459.195679 
	C660.294678,461.195923 660.294678,462.912933 660.294678,464.797821 
	C662.337097,464.957764 664.100464,465.095886 666.424377,465.277893 
	C666.424377,469.809296 666.196167,474.097412 666.478638,478.351685 
	C666.888000,484.517212 671.062805,488.551605 676.964722,488.967804 
	C683.163025,489.404846 687.295837,486.038208 688.693054,479.229889 
	C686.045959,477.761688 683.924072,477.055084 681.966003,480.677917 
	C681.274475,481.957306 678.549500,482.858368 676.895081,482.671844 
	C675.535767,482.518616 673.383057,480.548065 673.323181,479.299500 
	C673.098267,474.610260 673.586609,469.886780 674.740173,465.037018 
M391.937897,483.332275 
	C392.186523,479.209900 392.041504,475.014038 392.793976,470.985779 
	C393.552917,466.922668 396.643005,464.589111 400.804962,465.183716 
	C404.915741,465.771088 404.883820,469.378052 404.894440,472.604218 
	C404.911163,477.683289 404.898865,482.762390 404.898865,488.070435 
	C407.445648,487.933838 409.177063,487.840973 411.100159,487.737854 
	C411.100159,481.885223 411.104462,476.577423 411.096313,471.269623 
	C411.094788,470.273254 411.099121,469.271759 411.006317,468.281464 
	C410.282074,460.553589 403.860138,456.652924 397.196686,460.067078 
	C395.330780,461.023102 393.856323,462.743073 392.134705,464.168579 
	C391.926758,462.376648 391.743561,460.798187 391.563538,459.247009 
	C389.423828,459.247009 387.659271,459.247009 385.711670,459.247009 
	C385.711670,468.886322 385.711670,478.270691 385.711670,488.193878 
	C388.533691,487.456238 392.483398,489.784668 391.937897,483.332275 
M483.929047,486.186188 
	C485.694000,486.972595 487.458954,487.759033 489.928223,488.859253 
	C489.928223,480.706299 490.458588,473.874481 489.671875,467.197845 
	C489.349030,464.457825 486.626099,460.604523 484.200562,459.865814 
	C481.244690,458.965546 477.404938,460.642548 474.049469,461.572632 
	C473.013580,461.859741 472.311035,463.349609 471.137207,464.638763 
	C470.984955,462.606445 470.867493,461.038483 470.737183,459.298889 
	C468.609192,459.298889 466.721863,459.298889 464.767395,459.298889 
	C464.767395,468.972504 464.767395,478.337463 464.767395,487.755951 
	C466.907562,487.755951 468.671234,487.755951 470.705719,487.755951 
	C470.791382,486.239685 470.858856,484.944214 470.938812,483.649506 
	C471.203461,479.363800 471.091309,475.009247 471.851990,470.813110 
	C472.550293,466.960999 475.565460,464.771088 479.496338,465.132721 
	C483.693237,465.518829 483.871307,469.016296 483.892273,472.286987 
	C483.919983,476.607025 483.901978,480.927368 483.929047,486.186188 
M209.268005,482.021698 
	C207.827209,481.909576 206.386414,481.797455 204.868561,481.679321 
	C204.868561,472.384338 204.868561,463.472748 204.868561,454.385284 
	C207.004501,454.098785 208.900421,453.844482 210.789719,453.591064 
	C210.789719,451.691193 210.789719,450.089722 210.789719,448.267273 
	C204.468338,448.267273 198.401794,448.267273 192.257172,448.267273 
	C192.257172,450.266083 192.257172,451.979034 192.257172,453.693665 
	C194.336914,453.959686 196.079712,454.182617 197.816284,454.404755 
	C197.816284,463.660492 197.816284,472.581543 197.816284,481.770416 
	C195.842636,481.929626 194.092789,482.070801 192.250031,482.219452 
	C192.250031,484.236572 192.250031,485.944824 192.250031,487.658264 
	C198.656357,487.658264 204.721130,487.658264 211.386261,487.658264 
	C210.915787,485.521332 210.544907,483.836639 209.268005,482.021698 
M637.480103,488.003998 
	C640.923096,488.003998 644.366028,488.003998 647.863770,488.003998 
	C647.863770,485.741119 647.863770,484.134583 647.863770,482.002869 
	C641.580505,482.002869 635.500000,482.002869 628.864990,482.002869 
	C628.864990,470.425323 628.864990,459.363708 628.864990,448.219360 
	C626.509033,448.219360 624.728455,448.219360 622.727783,448.219360 
	C622.727783,461.510376 622.727783,474.580811 622.727783,488.003998 
	C627.525818,488.003998 632.006775,488.003998 637.480103,488.003998 
M368.996155,483.689941 
	C366.952545,482.814941 364.908905,481.939911 362.287903,480.817657 
	C362.287903,474.090179 362.287903,466.830627 362.287903,459.328857 
	C357.942505,459.328857 354.058990,459.328857 349.882660,459.328857 
	C349.989502,461.406830 350.078308,463.134491 350.162933,464.780243 
	C352.370941,464.968384 353.988464,465.106201 355.738586,465.255341 
	C355.738586,470.908844 355.738586,476.297333 355.738586,481.686371 
	C353.662048,481.948456 351.908813,482.169708 350.148071,482.391937 
	C350.148071,484.293213 350.148071,485.895844 350.148071,487.990540 
	C355.829132,487.990540 361.291382,488.133820 366.729828,487.838593 
	C367.561798,487.793457 368.283752,485.722626 368.996155,483.689941 
M432.399841,481.960846 
	C430.967743,482.076904 429.535675,482.192932 427.876038,482.327393 
	C427.974091,484.351410 428.051636,485.952637 428.136932,487.713379 
	C434.509155,487.713379 440.577148,487.713379 446.679077,487.713379 
	C446.679077,485.695282 446.679077,483.972473 446.679077,482.214661 
	C444.513153,482.047058 442.713959,481.907837 440.312042,481.722015 
	C440.312042,474.245789 440.312042,466.852936 440.312042,459.237061 
	C435.946411,459.237061 432.195496,459.237061 428.209412,459.237061 
	C428.209412,461.175201 428.209412,462.887756 428.209412,464.755310 
	C430.231750,464.941956 431.981964,465.103485 434.383972,465.325165 
	C434.011414,471.041901 433.660889,476.420685 432.399841,481.960846 
M441.101440,450.596527 
	C439.809082,445.549774 436.316223,448.820099 433.579590,448.191193 
	C433.579590,450.883820 433.579590,453.116791 433.579590,455.593872 
	C436.144379,455.593872 438.375763,455.593872 440.866089,455.593872 
	C440.954498,454.098511 441.030823,452.807922 441.101440,450.596527 
M360.433197,455.837067 
	C365.605530,454.698944 362.133484,451.014008 363.051392,448.420074 
	C360.231628,448.420074 357.889191,448.420074 355.192566,448.420074 
	C355.991394,451.693176 352.991852,456.491211 360.433197,455.837067 
z"/>
<path fill="#142F44" opacity="1.000000" stroke="none" 
	d="
M374.057159,382.134308 
	C376.191376,382.240143 378.325592,382.345978 380.937622,382.475525 
	C380.937622,380.299591 380.937592,378.501953 380.937592,376.704315 
	C380.937592,350.725464 381.078064,324.745483 380.863129,298.768402 
	C380.785522,289.391815 383.091888,281.058075 389.369690,273.299194 
	C391.511841,271.441101 393.233826,270.016937 394.955780,268.592773 
	C399.364136,267.004028 403.772522,265.415283 409.000610,263.744232 
	C411.581787,263.714630 413.343262,263.767273 415.104706,263.819916 
	C419.523560,265.574341 423.942444,267.328796 428.852478,269.505524 
	C431.204834,271.634003 433.066010,273.340149 434.927216,275.046295 
	C440.215576,282.518585 442.137634,290.846130 442.070374,299.960083 
	C441.881104,325.597443 442.004272,351.237091 442.004272,376.875854 
	C442.004272,378.522675 442.004303,380.169525 442.004303,382.127136 
	C448.687195,382.127136 455.086029,382.127136 462.142517,382.127136 
	C462.142517,380.480621 462.142487,378.708801 462.142487,376.936951 
	C462.142517,339.977173 462.160370,303.017426 462.129456,266.057648 
	C462.122162,257.318481 464.036530,249.255234 470.214111,241.949158 
	C472.460938,239.703888 474.296753,237.925095 476.132568,236.146301 
	C480.451752,234.632675 484.770966,233.119034 489.864014,231.538727 
	C492.443115,231.287598 494.248352,231.103149 496.053589,230.918701 
	C500.763702,232.898178 505.473785,234.877686 510.652527,237.262100 
	C512.952576,239.453964 514.783997,241.240906 516.615479,243.027832 
	C521.650879,250.454224 523.326904,258.647949 523.276733,267.591217 
	C523.073059,303.908142 523.192078,340.226929 523.192078,376.545013 
	C523.192078,378.336395 523.192078,380.127747 523.192078,382.408325 
	C525.843079,382.408325 527.970520,382.408325 530.833252,382.479309 
	C533.385498,382.426636 535.202637,382.302979 537.019714,382.179321 
	C541.431519,382.260925 545.843323,382.342560 550.998962,382.535095 
	C553.520020,382.484528 555.297241,382.323090 557.074463,382.161621 
	C572.553772,382.246979 588.033081,382.332031 603.512390,382.417847 
	C608.707458,382.446625 612.426941,384.601105 614.131653,389.724762 
	C615.673889,394.359894 614.399170,399.507660 610.147888,401.998199 
	C607.754089,403.400574 604.528992,403.920776 601.676880,403.925385 
	C533.421265,404.035217 465.165405,404.027985 396.909607,404.027771 
	C324.659058,404.027588 252.408508,404.018341 180.157959,403.997284 
	C171.005203,403.994598 166.061783,398.706360 167.753296,390.845337 
	C168.916489,385.439453 172.685669,382.530579 179.082825,382.476440 
	C190.074982,382.383392 201.068481,382.450226 212.061417,382.449951 
	C213.880905,382.449921 215.700378,382.449951 218.119659,382.449951 
	C218.119659,376.115906 218.119659,370.005554 218.126526,363.014984 
	C218.071915,360.433838 218.010452,358.732880 217.949005,357.031952 
	C218.159988,348.730988 218.094009,340.369629 222.794601,332.979858 
	C223.768906,331.448181 224.856613,329.988617 226.249603,327.995972 
	C228.446533,325.814301 230.285919,324.132507 232.473175,322.332977 
	C237.302490,320.660461 241.783936,319.105713 246.674896,317.620605 
	C248.739182,317.637970 250.393906,317.585724 252.048645,317.533508 
	C256.765045,319.418976 261.481476,321.304504 266.688843,323.572540 
	C268.831024,325.509552 270.482269,327.063995 272.133514,328.618469 
	C277.922791,336.869995 279.704987,346.076050 279.270050,356.031311 
	C278.894592,364.625122 279.192078,373.248352 279.192078,382.149109 
	C286.118805,382.149109 292.518921,382.149109 299.620392,382.149109 
	C299.620392,380.055420 299.620392,378.129913 299.620392,376.204407 
	C299.620392,339.421417 299.662537,302.638336 299.589111,265.855499 
	C299.571991,257.269165 301.406189,249.384216 307.356262,242.155731 
	C310.127960,239.696106 312.430908,237.662003 314.733856,235.627914 
	C318.925568,234.193832 323.117310,232.759735 328.063751,231.228027 
	C330.446045,231.100296 332.073639,231.070145 333.701202,231.039993 
	C338.201233,232.975998 342.701294,234.912003 347.683228,237.223541 
	C350.076172,239.331680 351.987213,241.064285 353.898285,242.796890 
	C359.421600,250.971115 360.790222,260.092865 360.744080,269.779694 
	C360.574493,305.359344 360.676849,340.940247 360.676849,376.520691 
	C360.676849,378.314850 360.676849,380.109009 360.676849,382.409485 
	C363.223419,382.409485 365.326813,382.409485 368.188263,382.462830 
	C370.649933,382.388885 372.353546,382.261597 374.057159,382.134308 
M414.418915,285.765472 
	C412.595184,285.828156 410.771484,285.890839 408.220947,285.909058 
	C402.376068,288.022583 401.160339,292.761108 401.163330,298.242920 
	C401.177582,324.318970 401.169708,350.394989 401.169678,376.471039 
	C401.169678,378.261841 401.169678,380.052612 401.169678,382.287842 
	C403.996979,382.287842 406.433441,382.287842 409.721252,382.594971 
	C411.521820,382.497833 413.322357,382.400696 415.918121,382.490997 
	C417.682129,382.490997 419.446167,382.490997 421.687805,382.490997 
	C421.687805,380.204376 421.687775,378.587189 421.687775,376.969971 
	C421.687744,350.897919 421.684113,324.825867 421.690674,298.753815 
	C421.692047,293.369629 420.806000,288.471375 414.418915,285.765472 
M245.286407,339.921539 
	C243.201538,342.306000 239.452332,344.599304 239.315857,347.090546 
	C238.676529,358.760284 239.031830,370.484497 239.031830,382.152710 
	C245.777710,382.152710 252.166763,382.152710 258.885162,382.152710 
	C258.885162,370.924225 259.099792,359.995026 258.774780,349.081879 
	C258.652435,344.972900 256.458618,341.525696 251.455902,339.798431 
	C249.643860,339.840820 247.831802,339.883209 245.286407,339.921539 
M333.259247,253.416061 
	C331.272156,253.368698 329.285034,253.321335 326.548065,253.536880 
	C321.436096,255.790115 319.952972,259.954285 319.962250,265.221771 
	C320.028229,302.775116 319.997437,340.328674 319.997437,377.882141 
	C319.997437,379.329742 319.997437,380.777344 319.997437,382.579468 
	C322.992950,382.390045 325.459900,382.234070 328.476471,382.499603 
	C330.274323,382.423004 332.072174,382.346375 334.818604,382.423340 
	C336.442413,382.423340 338.066223,382.423340 339.518768,382.423340 
	C339.823669,381.728058 340.069489,381.429108 340.069733,381.129944 
	C340.103333,341.772949 340.166199,302.415863 340.066040,263.059174 
	C340.055450,258.890686 338.180206,255.361389 333.259247,253.416061 
M495.740509,253.304489 
	C493.867218,253.296432 491.993927,253.288361 489.364807,253.478561 
	C483.651154,255.871353 482.637695,260.641602 482.646362,266.166779 
	C482.704987,303.443848 482.673950,340.721039 482.688690,377.998199 
	C482.689270,379.425751 482.861176,380.853241 482.968811,382.522125 
	C485.768799,382.393494 488.080872,382.287292 490.940125,382.516388 
	C492.641724,382.395844 494.343353,382.275299 496.931305,382.419189 
	C498.842682,382.419189 500.754089,382.419189 502.954224,382.419189 
	C502.954224,377.150482 502.954163,372.517029 502.954163,367.883606 
	C502.954132,333.829132 502.956024,299.774658 502.952087,265.720184 
	C502.951508,260.489014 502.046509,255.763046 495.740509,253.304489 
z"/>
<path fill="#4CD6D0" opacity="1.000000" stroke="none" 
	d="
M453.320374,203.462646 
	C456.474396,197.246216 460.339508,192.192963 466.211395,189.012497 
	C469.392578,191.798233 469.628113,193.795609 466.114410,196.598236 
	C458.613159,202.581467 455.733673,210.790329 455.751434,220.348785 
	C455.846680,271.675140 455.796387,323.001770 455.796356,374.328308 
	C455.796356,376.294556 455.796356,378.260803 455.796356,380.616760 
	C453.814209,380.729034 452.247894,380.817780 450.141357,380.937073 
	C450.039642,378.789246 449.883179,377.021423 449.882751,375.253540 
	C449.869751,323.593719 449.774475,271.933411 450.015472,220.274719 
	C450.041107,214.777267 452.049133,209.289047 453.320374,203.462646 
z"/>
<path fill="#40D3CD" opacity="1.000000" stroke="none" 
	d="
M286.997375,270.000000 
	C286.997498,253.015289 286.863861,236.529144 287.039703,220.046310 
	C287.182434,206.669434 292.785217,196.113770 304.606384,188.258469 
	C305.638885,190.023834 306.489258,191.477814 307.463226,193.143082 
	C296.066528,200.750412 292.803375,211.445236 292.880859,224.316086 
	C293.180481,274.101440 293.002625,323.889648 293.002625,373.676819 
	C293.002625,375.635590 293.002625,377.594391 293.002625,379.762634 
	C290.875458,379.762634 289.271637,379.762634 286.997375,379.762634 
	C286.997375,343.307922 286.997375,306.903961 286.997375,270.000000 
z"/>
<path fill="#49D5CF" opacity="1.000000" stroke="none" 
	d="
M272.347656,328.143829 
	C270.482269,327.063995 268.831024,325.509552 267.036743,323.680969 
	C266.622620,315.608337 266.970886,307.726837 265.940430,300.029938 
	C264.244720,287.364319 253.639740,276.447937 239.845551,276.241211 
	C224.542892,276.011871 212.137009,288.587585 211.828369,304.130493 
	C211.623413,314.451416 211.787460,324.779663 211.786423,335.104614 
	C211.786240,336.890778 211.786392,338.676941 211.786392,340.739319 
	C199.658005,340.739319 188.092178,340.739319 176.257431,340.739319 
	C176.257431,338.977692 176.257431,337.398560 176.257431,335.269958 
	C185.964081,335.269958 195.527527,335.269958 205.878418,335.269958 
	C205.878418,330.652985 205.742325,326.561371 205.906113,322.481781 
	C206.271957,313.369354 205.456802,303.951447 207.502136,295.214996 
	C212.725952,272.902039 239.344284,263.354553 257.760986,276.585419 
	C267.627502,283.673706 272.133789,293.845001 272.702942,305.704529 
	C273.053375,313.007019 272.635010,320.346375 272.347656,328.143829 
z"/>
<path fill="#4CD4CF" opacity="1.000000" stroke="none" 
	d="
M374.084808,381.655945 
	C372.353546,382.261597 370.649933,382.388885 368.672424,382.348022 
	C368.333740,359.688232 368.246246,337.196686 368.210938,314.705048 
	C368.179047,294.375854 368.152893,274.046448 368.223328,253.717468 
	C368.266479,241.257111 372.565735,230.683060 382.610382,222.859955 
	C384.028046,221.755844 385.650848,220.915115 387.473846,219.766495 
	C388.422058,221.422623 389.223145,222.821808 390.163666,224.464508 
	C387.968628,226.201035 385.785583,227.696014 383.874176,229.481750 
	C376.876526,236.019333 374.124023,244.312698 374.124512,253.703384 
	C374.126648,296.194763 374.117523,338.686157 374.084808,381.655945 
z"/>

<path fill="#45D3CD" opacity="1.000000" stroke="none" 
	d="
M252.093689,317.101379 
	C250.393906,317.585724 248.739182,317.637970 246.626556,317.192139 
	C246.188431,313.210114 246.286469,309.724457 246.209381,306.242676 
	C246.097290,301.179840 243.204315,297.979584 238.932709,298.016113 
	C234.845856,298.051056 232.097504,301.127106 232.036697,306.029144 
	C231.968826,311.501801 232.087708,316.976746 232.125305,322.450714 
	C230.285919,324.132507 228.446533,325.814301 226.349915,327.656250 
	C226.058609,320.513855 225.877548,313.208160 226.029922,305.909485 
	C226.198181,297.850098 231.940643,291.982605 239.287491,291.993225 
	C246.461502,292.003601 251.808533,297.685944 252.077179,305.712524 
	C252.199295,309.361359 252.124313,313.016785 252.093689,317.101379 
z"/>
<path fill="#53C9C7" opacity="1.000000" stroke="none" 
	d="
M557.095947,381.680969 
	C555.297241,382.323090 553.520020,382.484528 551.471191,382.459686 
	C551.199524,374.004608 551.199524,365.735809 551.199524,357.226715 
	C562.566895,357.226715 573.317627,357.226715 584.504150,357.226715 
	C584.504150,358.990753 584.504150,360.672760 584.504150,362.885193 
	C575.487610,362.885193 566.620422,362.885193 557.117432,362.885193 
	C557.117432,369.330078 557.117432,375.265198 557.095947,381.680969 
z"/>
<path fill="#45D3CD" opacity="1.000000" stroke="none" 
	d="
M217.484650,357.013733 
	C218.010452,358.732880 218.071915,360.433838 218.041107,362.551147 
	C200.895935,362.967499 183.843033,362.967499 166.598129,362.967499 
	C165.450211,358.936890 165.670975,356.829590 170.585266,356.903320 
	C186.060593,357.135590 201.541534,356.993042 217.484650,357.013733 
z"/>

<path fill="#4CD6D0" opacity="1.000000" stroke="none" 
	d="
M516.680420,242.566071 
	C514.783997,241.240906 512.952576,239.453964 510.978699,237.365204 
	C510.848236,232.417145 510.713470,227.764893 510.902863,223.125900 
	C511.291168,213.616959 508.375977,205.218796 502.395844,197.679871 
	C503.572113,196.398148 504.552643,195.329727 505.830811,193.936981 
	C511.638428,199.155426 515.258240,205.449097 515.872620,212.824966 
	C516.682007,222.541565 516.500732,232.340668 516.680420,242.566071 
z"/>
<path fill="#40D3CD" opacity="1.000000" stroke="none" 
	d="
M353.956604,242.351913 
	C351.987213,241.064285 350.076172,239.331680 348.018127,237.297394 
	C347.910309,230.332916 348.807465,223.529861 347.747620,217.046738 
	C346.685852,210.551971 343.670197,204.376602 341.510956,198.061234 
	C341.093048,198.188171 340.675171,198.315094 340.257263,198.442032 
	C341.314514,197.197845 342.371765,195.953674 343.714142,194.373947 
	C350.075958,200.844254 353.346283,208.092499 353.745453,216.427551 
	C354.151489,224.905533 353.950226,233.412598 353.956604,242.351913 
z"/>
<path fill="#49D5CF" opacity="1.000000" stroke="none" 
	d="
M435.003296,274.580139 
	C433.066010,273.340149 431.204834,271.634003 429.181946,269.666077 
	C429.075867,262.586792 429.859833,255.672272 428.968536,248.980896 
	C428.182800,243.081985 425.526123,237.432281 423.466797,230.952499 
	C423.862152,230.595673 425.038605,229.533890 426.510590,228.205383 
	C432.005280,234.242126 434.660431,241.076096 434.971649,248.663498 
	C435.319153,257.134216 435.069275,265.629425 435.003296,274.580139 
z"/>
<path fill="#4CD4CF" opacity="1.000000" stroke="none" 
	d="
M496.084076,230.457779 
	C494.248352,231.103149 492.443115,231.287598 490.264648,231.423218 
	C489.662811,225.974503 489.247009,220.571701 489.331055,215.176697 
	C489.353363,213.746231 490.912720,212.339706 491.766296,210.922150 
	C492.818878,211.708649 494.683868,212.398132 494.791260,213.297516 
	C495.452820,218.837646 495.717743,224.425125 496.084076,230.457779 
z"/>
<path fill="#4CD6D0" opacity="1.000000" stroke="none" 
	d="
M333.735229,230.576782 
	C332.073639,231.070145 330.446045,231.100296 328.413391,231.051514 
	C327.651917,225.862778 327.063568,220.752304 327.078125,215.643539 
	C327.082611,214.076248 328.738281,212.513657 329.936646,210.429260 
	C335.386597,216.880188 333.361786,223.720627 333.735229,230.576782 
z"/>
<path fill="#40D0CB" opacity="1.000000" stroke="none" 
	d="
M415.076019,263.365479 
	C413.343262,263.767273 411.581787,263.714630 409.389648,263.599854 
	C408.958954,258.293793 408.958954,253.049820 408.958954,247.270126 
	C409.973114,246.760910 411.524231,245.982101 414.341339,244.567642 
	C414.600311,251.295990 414.823822,257.103516 415.076019,263.365479 
z"/>

<path fill="#4DD4CF" opacity="1.000000" stroke="none" 
	d="
M394.914795,268.146088 
	C393.233826,270.016937 391.511841,271.441101 389.490295,272.973511 
	C388.925507,270.058868 388.660309,267.036041 388.380859,263.850403 
	C392.500763,262.631561 395.277924,262.609680 394.914795,268.146088 
z"/>
<path fill="#4DD4CF" opacity="1.000000" stroke="none" 
	d="
M314.452209,235.383621 
	C312.430908,237.662003 310.127960,239.696106 307.533844,241.853638 
	C307.242645,239.036255 307.242645,236.095428 307.242645,231.401611 
	C310.218781,233.007294 312.194672,234.073318 314.452209,235.383621 
z"/>
<path fill="#40D0CB" opacity="1.000000" stroke="none" 
	d="
M476.053162,235.726898 
	C474.296753,237.925095 472.460938,239.703888 470.356506,241.624313 
	C470.087891,239.325287 470.087891,236.884598 470.087891,233.386246 
	C472.447815,234.156570 474.210785,234.732040 476.053162,235.726898 
z"/>
<path fill="#FAFDFD" opacity="1.000000" stroke="none" 
	d="
M327.926880,382.078064 
	C325.459900,382.234070 322.992950,382.390045 319.997437,382.579468 
	C319.997437,380.777344 319.997437,379.329742 319.997437,377.882141 
	C319.997437,340.328674 320.028229,302.775116 319.962250,265.221771 
	C319.952972,259.954285 321.436096,255.790115 327.087036,253.829010 
	C327.712250,256.113495 327.872528,258.105804 327.873932,260.098206 
	C327.902466,300.758148 327.912872,341.418121 327.926880,382.078064 
z"/>
<path fill="#FFFFFF" opacity="1.000000" stroke="none" 
	d="
M490.392944,382.181091 
	C488.080872,382.287292 485.768799,382.393494 482.968811,382.522125 
	C482.861176,380.853241 482.689270,379.425751 482.688690,377.998199 
	C482.673950,340.721039 482.704987,303.443848 482.646362,266.166779 
	C482.637695,260.641602 483.651154,255.871353 489.762634,253.896088 
	C490.174164,274.960571 490.168671,295.607605 490.206787,316.254547 
	C490.247314,338.230103 490.329132,360.205566 490.392944,382.181091 
z"/>
<path fill="#F5FBFB" opacity="1.000000" stroke="none" 
	d="
M496.158356,253.912033 
	C502.046509,255.763046 502.951508,260.489014 502.952087,265.720184 
	C502.956024,299.774658 502.954132,333.829132 502.954163,367.883606 
	C502.954163,372.517029 502.954224,377.150482 502.954224,382.419189 
	C500.754089,382.419189 498.842682,382.419189 496.509338,381.806763 
	C496.111023,338.766907 496.134705,296.339478 496.158356,253.912033 
z"/>
<path fill="#4DD4CF" opacity="1.000000" stroke="none" 
	d="
M328.201660,382.288818 
	C327.912872,341.418121 327.902466,300.758148 327.873932,260.098206 
	C327.872528,258.105804 327.712250,256.113495 327.461975,253.697556 
	C329.285034,253.321335 331.272156,253.368698 333.522705,254.163666 
	C333.814087,297.364075 333.842041,339.816925 333.870026,382.269745 
	C332.072174,382.346375 330.274323,382.423004 328.201660,382.288818 
z"/>
<path fill="#4DD4CF" opacity="1.000000" stroke="none" 
	d="
M495.949432,253.608261 
	C496.134705,296.339478 496.111023,338.766907 496.066162,381.674561 
	C494.343353,382.275299 492.641724,382.395844 490.666534,382.348755 
	C490.329132,360.205566 490.247314,338.230103 490.206787,316.254547 
	C490.168671,295.607605 490.174164,274.960571 490.140564,253.796936 
	C491.993927,253.288361 493.867218,253.296432 495.949432,253.608261 
z"/>
<path fill="#F7F8F9" opacity="1.000000" stroke="none" 
	d="
M408.869934,382.287842 
	C406.433441,382.287842 403.996979,382.287842 401.169678,382.287842 
	C401.169678,380.052612 401.169678,378.261841 401.169678,376.471039 
	C401.169708,350.394989 401.177582,324.318970 401.163330,298.242920 
	C401.160339,292.761108 402.376068,288.022583 408.614746,286.402954 
	C408.962311,318.693848 408.916107,350.490845 408.869934,382.287842 
z"/>
<path fill="#FFFFFF" opacity="1.000000" stroke="none" 
	d="
M334.344299,382.346558 
	C333.842041,339.816925 333.814087,297.364075 333.754395,254.439178 
	C338.180206,255.361389 340.055450,258.890686 340.066040,263.059174 
	C340.166199,302.415863 340.103333,341.772949 340.069733,381.129944 
	C340.069489,381.429108 339.823669,381.728058 339.518768,382.423340 
	C338.066223,382.423340 336.442413,382.423340 334.344299,382.346558 
z"/>
<path fill="#FAFDFD" opacity="1.000000" stroke="none" 
	d="
M252.091476,340.148651 
	C256.458618,341.525696 258.652435,344.972900 258.774780,349.081879 
	C259.099792,359.995026 258.885162,370.924225 258.885162,382.152710 
	C252.166763,382.152710 245.777710,382.152710 239.031830,382.152710 
	C239.031830,370.484497 238.676529,358.760284 239.315857,347.090546 
	C239.452332,344.599304 243.201538,342.306000 245.729340,340.390320 
	C246.172256,345.473541 246.172256,350.087921 246.172256,354.806671 
	C248.453690,354.806671 250.035599,354.806671 252.091476,354.806671 
	C252.091476,349.734009 252.091476,344.941315 252.091476,340.148651 
z"/>
<path fill="#F1F3F4" opacity="1.000000" stroke="none" 
	d="
M415.054474,286.118011 
	C420.806000,288.471375 421.692047,293.369629 421.690674,298.753815 
	C421.684113,324.825867 421.687744,350.897919 421.687775,376.969971 
	C421.687775,378.587189 421.687805,380.204376 421.687805,382.490997 
	C419.446167,382.490997 417.682129,382.490997 415.464264,381.983276 
	C415.025085,349.689697 415.039795,317.903870 415.054474,286.118011 
z"/>
<path fill="#40D0CB" opacity="1.000000" stroke="none" 
	d="
M414.736694,285.941742 
	C415.039795,317.903870 415.025085,349.689697 415.066650,381.889526 
	C413.322357,382.400696 411.521820,382.497833 409.295593,382.441406 
	C408.916107,350.490845 408.962311,318.693848 408.978149,286.425171 
	C410.771484,285.890839 412.595184,285.828156 414.736694,285.941742 
z"/>
<path fill="#FFFFFF" opacity="1.000000" stroke="none" 
	d="
M232.473175,322.332977 
	C232.087708,316.976746 231.968826,311.501801 232.036697,306.029144 
	C232.097504,301.127106 234.845856,298.051056 238.932709,298.016113 
	C243.204315,297.979584 246.097290,301.179840 246.209381,306.242676 
	C246.286469,309.724457 246.188431,313.210114 246.217010,317.122498 
	C241.783936,319.105713 237.302490,320.660461 232.473175,322.332977 
z"/>
<path fill="#4CD4CF" opacity="1.000000" stroke="none" 
	d="
M251.773682,339.973541 
	C252.091476,344.941315 252.091476,349.734009 252.091476,354.806671 
	C250.035599,354.806671 248.453690,354.806671 246.172256,354.806671 
	C246.172256,350.087921 246.172256,345.473541 246.096008,340.392334 
	C247.831802,339.883209 249.643860,339.840820 251.773682,339.973541 
z"/>




</svg>